<svg width="24" height="24" viewBox="0 0 24 24" fill="none" xmlns="http://www.w3.org/2000/svg">
<path d="M2 4C2 2.89543 2.89543 2 4 2V2V22V22C2.89543 22 2 21.1046 2 20V4Z" fill="currentColor"/>
<path d="M4 22C2.89543 22 2 21.1046 2 20V20H22V20C22 21.1046 21.1046 22 20 22H4Z" fill="currentColor"/>
<path d="M22 20C22 21.1046 21.1046 22 20 22V22V14H22V20Z" fill="currentColor"/>
<path d="M20 2V4L2 4V4C2 2.89543 2.89543 2 4 2L20 2Z" fill="currentColor"/>
<path d="M20 11V13L9 13C8.44772 13 8 12.5523 8 12V12C8 11.4477 8.44772 11 9 11L20 11Z" fill="currentColor"/>
<path d="M12.2426 7L13.6569 8.41421L10.1213 11.9497C9.7308 12.3403 9.09763 12.3403 8.70711 11.9497V11.9497C8.31658 11.5592 8.31658 10.9261 8.70711 10.5355L12.2426 7Z" fill="currentColor"/>
<path d="M13.6569 15.2426L12.2426 16.6569L8.70711 13.1213C8.31658 12.7308 8.31658 12.0976 8.70711 11.7071V11.7071C9.09763 11.3166 9.73079 11.3166 10.1213 11.7071L13.6569 15.2426Z" fill="currentColor"/>
</svg>
